# xmcd
#
# Track frame offsets:
#	150
#	22597
#	41020
#	54647
#	74784
#	85089
#	106182
#	121794
#	136363
#	152443
#	175191
#	190534
#	207703
#
# Disc length: 2940 seconds
#
# Revision: 0
# Processed by: cddbd v1.5.1PL0 Copyright (c) Steve Scherf et al.
# Submitted via: dBpowerAMP V4.0
#
DISCID=a80b7a0d
DTITLE=RX Blues - I Hate My Boss
DYEAR=1900
DGENRE=Blues
TTITLE0=I Hate My Boss
TTITLE1=Problems No More
TTITLE2=Memphis Beale Street
TTITLE3=Sad Bad Lovin' Blues
TTITLE4=St. Louis Shuffle
TTITLE5=Eat Good Eat Bad
TTITLE6=Neon Jungle
TTITLE7=Big Daddy
TTITLE8=Hit It Twice
TTITLE9=Blacklisted
TTITLE10=The Wolf Is At Your Door
TTITLE11=Middle of the Road
TTITLE12=Empty Pockets
EXTD=
EXTT0=
EXTT1=
EXTT2=
EXTT3=
EXTT4=
EXTT5=
EXTT6=
EXTT7=
EXTT8=
EXTT9=
EXTT10=
EXTT11=
EXTT12=
PLAYORDER=
